<svg width="20" height="20" viewBox="0 0 20 20" fill="none" xmlns="http://www.w3.org/2000/svg">
<path d="M4.4445 4.55566H13.3334V5.44455H4.4445V4.55566ZM4.4445 9.00011H8.93672V9.889H4.4445V9.00011ZM12.9878 6.77789H4.4445V7.66678H12.0995L12.9878 6.77789ZM7.10728 16.1512C7.2567 16.3226 7.44637 16.4541 7.65922 16.534C7.87207 16.6139 8.10144 16.6397 8.32672 16.609H12.6617C12.7649 16.609 12.8638 16.568 12.9367 16.4951C13.0096 16.4222 13.0506 16.3232 13.0506 16.2201C13.0506 16.117 13.0096 16.0181 12.9367 15.9451C12.8638 15.8722 12.7649 15.8312 12.6617 15.8312H8.32672C7.82061 15.8223 7.91061 15.3829 7.98172 15.2468C8.07443 15.087 8.14667 14.9162 8.19672 14.7384C8.22994 14.5954 8.21428 14.4453 8.15225 14.3122C8.09023 14.1791 7.9854 14.0706 7.8545 14.004C7.64419 13.9092 7.40863 13.886 7.18388 13.9379C6.95912 13.9898 6.75756 14.1139 6.61005 14.2912C6.41894 14.4884 6.15339 14.7901 5.89894 15.0834C6.05616 14.4673 6.26005 13.6768 6.46005 12.9057C6.51737 12.73 6.50596 12.5391 6.42812 12.3714C6.35029 12.2038 6.21182 12.0719 6.04061 12.0023C5.851 11.9373 5.64378 11.9466 5.46076 12.0283C5.27774 12.1101 5.13255 12.2583 5.0545 12.4429C4.8145 12.9046 2.9145 16.0884 2.89561 16.1207C2.86942 16.1645 2.85212 16.2131 2.8447 16.2636C2.83728 16.3142 2.83989 16.3657 2.85237 16.4152C2.86486 16.4647 2.88698 16.5113 2.91746 16.5523C2.94795 16.5932 2.98621 16.6278 3.03005 16.654C3.11861 16.7069 3.22454 16.7224 3.32456 16.6972C3.42458 16.672 3.51049 16.6081 3.56339 16.5196C3.6345 16.4001 5.15116 13.8596 5.6295 13.0112C5.2695 14.4001 4.87283 15.9457 4.8495 16.0846C4.82323 16.1867 4.83112 16.2946 4.87195 16.3918C4.91278 16.489 4.98431 16.5702 5.07561 16.6229C5.1773 16.6733 5.2929 16.6885 5.40415 16.6659C5.51541 16.6434 5.616 16.5845 5.69005 16.4984C5.76005 16.4351 5.89116 16.2846 6.22172 15.9007C6.5297 15.5384 6.84514 15.1826 7.16783 14.8334C7.28894 14.7057 7.36228 14.7623 7.29116 14.8879C7.15206 15.0637 7.06185 15.2731 7.02966 15.4949C6.99747 15.7167 7.02388 15.9432 7.10728 16.1512Z" fill="white"/>
<path d="M15.5555 12.0528V17.7778H2.2222V2.2222H15.5555V4.99608L16.2944 4.2572C16.4082 4.14501 16.5329 4.04451 16.6666 3.9572V1.66664C16.6666 1.5193 16.6081 1.37799 16.5039 1.2738C16.3997 1.16962 16.2584 1.11108 16.1111 1.11108H1.66664C1.5193 1.11108 1.37799 1.16962 1.2738 1.2738C1.16962 1.37799 1.11108 1.5193 1.11108 1.66664V18.3333C1.11108 18.4806 1.16962 18.622 1.2738 18.7261C1.37799 18.8303 1.5193 18.8889 1.66664 18.8889H16.1111C16.2584 18.8889 16.3997 18.8303 16.5039 18.7261C16.6081 18.622 16.6666 18.4806 16.6666 18.3333V11.9039C16.3259 12.0844 15.9318 12.1372 15.5555 12.0528Z" fill="white"/>
<path d="M18.9599 6.58951L18.6694 6.29896C18.8179 6.10272 18.893 5.86071 18.8819 5.61487C18.8707 5.36902 18.7739 5.13483 18.6083 4.95285C18.3932 4.76331 18.112 4.66642 17.8258 4.68328C17.5397 4.70014 17.2718 4.82937 17.0805 5.04285L10.1221 12.0001L9.65714 13.7456C9.64978 13.7685 9.64889 13.7929 9.65456 13.8162C9.66023 13.8395 9.67224 13.8608 9.68927 13.8777C9.70629 13.8946 9.72767 13.9065 9.75102 13.912C9.77438 13.9175 9.7988 13.9165 9.82159 13.909L11.561 13.4384L18.0566 6.94285L18.331 7.21785C18.3502 7.23699 18.3654 7.25972 18.3758 7.28475C18.3862 7.30977 18.3915 7.33659 18.3915 7.36368C18.3915 7.39077 18.3862 7.41759 18.3758 7.44262C18.3654 7.46764 18.3502 7.49037 18.331 7.50951L15.5994 10.2412C15.516 10.3246 15.4693 10.4377 15.4693 10.5555C15.4694 10.6734 15.5162 10.7865 15.5996 10.8698C15.683 10.9531 15.7961 10.9999 15.914 10.9998C16.0319 10.9998 16.1449 10.9529 16.2283 10.8695L18.9599 8.13785C19.1652 7.93241 19.2806 7.65385 19.2806 7.3634C19.2806 7.07296 19.1652 6.7944 18.9599 6.58896V6.58951Z" fill="white"/>
</svg>
