<svg width="20" height="20" viewBox="0 0 20 20" fill="none" xmlns="http://www.w3.org/2000/svg">
<path d="M4.44425 4.55566H13.3331V5.44455H4.44425V4.55566ZM4.44425 9.00011H8.93648V9.889H4.44425V9.00011ZM12.9876 6.77789H4.44425V7.66678H12.0993L12.9876 6.77789ZM7.10703 16.1512C7.25646 16.3226 7.44612 16.4541 7.65898 16.534C7.87183 16.6139 8.1012 16.6397 8.32648 16.609H12.6615C12.7646 16.609 12.8635 16.568 12.9365 16.4951C13.0094 16.4222 13.0504 16.3232 13.0504 16.2201C13.0504 16.117 13.0094 16.0181 12.9365 15.9451C12.8635 15.8722 12.7646 15.8312 12.6615 15.8312H8.32648C7.82036 15.8223 7.91036 15.3829 7.98148 15.2468C8.07419 15.087 8.14642 14.9162 8.19648 14.7384C8.22969 14.5954 8.21404 14.4453 8.15201 14.3122C8.08998 14.1791 7.98515 14.0706 7.85425 14.004C7.64395 13.9092 7.40839 13.886 7.18363 13.9379C6.95888 13.9898 6.75732 14.1139 6.60981 14.2912C6.4187 14.4884 6.15314 14.7901 5.8987 15.0834C6.05592 14.4673 6.25981 13.6768 6.45981 12.9057C6.51712 12.73 6.50571 12.5391 6.42788 12.3714C6.35004 12.2038 6.21157 12.0719 6.04036 12.0023C5.85076 11.9373 5.64354 11.9466 5.46052 12.0283C5.27749 12.1101 5.13231 12.2583 5.05425 12.4429C4.81425 12.9046 2.91425 16.0884 2.89536 16.1207C2.86917 16.1645 2.85187 16.2131 2.84446 16.2636C2.83704 16.3142 2.83965 16.3657 2.85213 16.4152C2.86461 16.4647 2.88673 16.5113 2.91722 16.5523C2.9477 16.5932 2.98596 16.6278 3.02981 16.654C3.11836 16.7069 3.2243 16.7224 3.32432 16.6972C3.42434 16.672 3.51025 16.6081 3.56314 16.5196C3.63425 16.4001 5.15092 13.8596 5.62925 13.0112C5.26925 14.4001 4.87259 15.9457 4.84925 16.0846C4.82299 16.1867 4.83087 16.2946 4.8717 16.3918C4.91253 16.489 4.98406 16.5702 5.07536 16.6229C5.17706 16.6733 5.29265 16.6885 5.40391 16.6659C5.51516 16.6434 5.61575 16.5845 5.68981 16.4984C5.75981 16.4351 5.89092 16.2846 6.22148 15.9007C6.52946 15.5384 6.8449 15.1826 7.16759 14.8334C7.2887 14.7057 7.36203 14.7623 7.29092 14.8879C7.15182 15.0637 7.06161 15.2731 7.02942 15.4949C6.99722 15.7167 7.02363 15.9432 7.10703 16.1512Z" fill="#0D99FF"/>
<path d="M15.5558 12.0528V17.7778H2.22244V2.2222H15.5558V4.99608L16.2947 4.2572C16.4084 4.14501 16.5331 4.04451 16.6669 3.9572V1.66664C16.6669 1.5193 16.6084 1.37799 16.5042 1.2738C16.4 1.16962 16.2587 1.11108 16.1113 1.11108H1.66688C1.51954 1.11108 1.37823 1.16962 1.27405 1.2738C1.16986 1.37799 1.11133 1.5193 1.11133 1.66664V18.3333C1.11133 18.4806 1.16986 18.622 1.27405 18.7261C1.37823 18.8303 1.51954 18.8889 1.66688 18.8889H16.1113C16.2587 18.8889 16.4 18.8303 16.5042 18.7261C16.6084 18.622 16.6669 18.4806 16.6669 18.3333V11.9039C16.3261 12.0844 15.932 12.1372 15.5558 12.0528Z" fill="#0D99FF"/>
<path d="M18.9599 6.58951L18.6694 6.29896C18.8179 6.10272 18.893 5.86071 18.8819 5.61487C18.8707 5.36902 18.7739 5.13483 18.6083 4.95285C18.3932 4.76331 18.112 4.66642 17.8258 4.68328C17.5397 4.70014 17.2718 4.82937 17.0805 5.04285L10.1221 12.0001L9.65714 13.7456C9.64978 13.7685 9.64889 13.7929 9.65456 13.8162C9.66023 13.8395 9.67224 13.8608 9.68927 13.8777C9.70629 13.8946 9.72767 13.9065 9.75102 13.912C9.77438 13.9175 9.7988 13.9165 9.82159 13.909L11.561 13.4384L18.0566 6.94285L18.331 7.21785C18.3502 7.23699 18.3654 7.25972 18.3758 7.28475C18.3862 7.30977 18.3915 7.33659 18.3915 7.36368C18.3915 7.39077 18.3862 7.41759 18.3758 7.44262C18.3654 7.46764 18.3502 7.49037 18.331 7.50951L15.5994 10.2412C15.516 10.3246 15.4693 10.4377 15.4693 10.5555C15.4694 10.6734 15.5162 10.7865 15.5996 10.8698C15.683 10.9531 15.7961 10.9999 15.914 10.9998C16.0319 10.9998 16.1449 10.9529 16.2283 10.8695L18.9599 8.13785C19.1652 7.93241 19.2806 7.65385 19.2806 7.3634C19.2806 7.07296 19.1652 6.7944 18.9599 6.58896V6.58951Z" fill="#0D99FF"/>
</svg>
