<svg width="56" height="56" viewBox="0 0 56 56" fill="none" xmlns="http://www.w3.org/2000/svg">
<g opacity="0.8">
<path d="M10.5 5.25V50.75H45.5V16.8L44.975 16.275L34.475 5.775L33.95 5.25H10.5ZM14 8.75H31.5V19.25H42V47.25H14V8.75ZM35 11.2L39.55 15.75H35V11.2ZM17.5 15.75V19.25H28V15.75H17.5ZM17.5 22.75V26.25H38.5V22.75H17.5ZM23.625 28C22.05 28 20.825 29.05 20.125 30.275C19.425 31.5 19.25 33.075 19.25 34.825C19.25 35.875 19.6 36.925 19.775 37.975C19.075 38.15 18.375 38.675 17.5 38.675V42.175C18.725 42.175 19.95 42 21 41.65C21.175 42 21.175 42.175 21.525 42.525C22.225 43.225 23.275 43.75 24.5 43.75C27.3 43.75 29.05 41.825 30.275 40.425C30.45 40.075 30.625 39.9 30.8 39.725C30.8 39.9 30.8 40.075 30.975 40.25C31.15 40.6 31.325 40.95 31.675 41.3C32.025 41.65 32.725 42 33.25 42C34.3 42 35 41.3 35.35 40.95C35.7 40.6 36.05 40.075 36.4 39.725C37.1 39.025 37.625 38.5 38.325 38.5V35C36.225 35 34.65 36.225 33.775 37.275C33.775 37.1 33.775 36.925 33.6 36.75C33.425 36.4 33.25 36.05 32.9 35.525C32.55 35 32.025 35 31.5 35C30.1 35 29.575 35.875 29.05 36.4C28.525 36.925 28 37.625 27.65 38.325C26.6 39.55 25.9 40.25 24.5 40.25C24.325 40.25 24.325 40.075 24.15 40.075C24.325 40.075 24.325 39.9 24.5 39.9C26.425 38.325 28 36.225 28 33.425C28 32.025 27.65 30.8 26.95 29.75C26.25 28.7 25.025 28 23.625 28ZM23.45 31.5C23.975 31.5 23.975 31.5 24.15 31.85C24.325 32.2 24.5 32.725 24.5 33.6C24.5 34.65 23.975 35.7 23.1 36.575C23.1 36.05 22.75 35.35 22.75 35C22.75 33.6 22.925 32.55 23.275 32.025C23.45 31.675 23.45 31.5 23.45 31.5Z" fill="#05202B"/>
</g>
</svg>
