<svg width="20" height="21" viewBox="0 0 20 21" fill="none" xmlns="http://www.w3.org/2000/svg">
<path d="M1.25 17.5C1.25 17.6758 1.28255 17.8385 1.34766 17.9883C1.41276 18.138 1.50065 18.2682 1.61133 18.3789C1.72201 18.4896 1.85547 18.5807 2.01172 18.6523C2.16797 18.724 2.33073 18.7565 2.5 18.75H8.75L11.2598 20H2.5C2.15495 20 1.83268 19.9349 1.5332 19.8047C1.23372 19.6745 0.966797 19.4954 0.732422 19.2676C0.498047 19.0397 0.31901 18.776 0.195312 18.4766C0.0716146 18.1771 0.00651042 17.8516 0 17.5V2.5C0 2.18099 0.0683594 1.87174 0.205078 1.57227C0.341797 1.27279 0.527344 1.00586 0.761719 0.771484C0.996094 0.537109 1.26302 0.351562 1.5625 0.214844C1.86198 0.078125 2.17448 0.00651042 2.5 0H16.25V6.65039L15 6.02539V1.25H2.5C2.35026 1.25 2.20052 1.28581 2.05078 1.35742C1.90104 1.42904 1.76758 1.52669 1.65039 1.65039C1.5332 1.77409 1.4388 1.90755 1.36719 2.05078C1.29557 2.19401 1.25651 2.34375 1.25 2.5V15.3516C1.4388 15.2409 1.63737 15.1562 1.8457 15.0977C2.05404 15.0391 2.27214 15.0065 2.5 15H7.5V16.25H2.5C2.32422 16.25 2.16146 16.2826 2.01172 16.3477C1.86198 16.4128 1.73177 16.5007 1.62109 16.6113C1.51042 16.722 1.41927 16.8555 1.34766 17.0117C1.27604 17.168 1.24349 17.3307 1.25 17.5ZM20 9.91211V17.3535L14.375 20.1562L8.75 17.3535V9.91211L14.375 7.10938L20 9.91211ZM14.375 8.50586L10.7715 10.3027L14.375 12.0996L17.9785 10.3027L14.375 8.50586ZM10 16.582L13.75 18.4473V13.1836L10 11.3086V16.582ZM18.75 16.582V11.3086L15 13.1836V18.4473L18.75 16.582Z" fill="#0D99FF"/>
</svg>
