<svg width="59" height="59" viewBox="0 0 59 59" fill="none" xmlns="http://www.w3.org/2000/svg">
<g opacity="0.7">
<path d="M47.9375 9.21875H11.0625C8.00767 9.21875 5.53125 11.6952 5.53125 14.75V44.25C5.53125 47.3048 8.00767 49.7812 11.0625 49.7812H47.9375C50.9923 49.7812 53.4688 47.3048 53.4688 44.25V14.75C53.4688 11.6952 50.9923 9.21875 47.9375 9.21875Z" stroke="#05202B" stroke-width="1.5" stroke-linejoin="round"/>
<path d="M38.7188 23.9688C40.7553 23.9688 42.4062 22.3178 42.4062 20.2812C42.4062 18.2447 40.7553 16.5938 38.7188 16.5938C36.6822 16.5938 35.0312 18.2447 35.0312 20.2812C35.0312 22.3178 36.6822 23.9688 38.7188 23.9688Z" stroke="#05202B" stroke-width="1.5" stroke-miterlimit="10"/>
<path d="M35.0312 38.6946L24.5841 28.267C23.9193 27.6024 23.0258 27.2167 22.0862 27.1889C21.1465 27.161 20.2317 27.4931 19.5288 28.1172L5.53125 40.5625M25.8125 49.7813L40.0255 35.5683C40.6755 34.917 41.5455 34.5322 42.4647 34.4896C43.3839 34.4469 44.2858 34.7495 44.9933 35.3378L53.4688 42.4063" stroke="#05202B" stroke-width="1.5" stroke-linecap="round" stroke-linejoin="round"/>
</g>
</svg>
